<mxfile host="app.diagrams.net" modified="2024-03-04T14:20:43.023Z" agent="Mozilla/5.0 (Macintosh; Intel Mac OS X 10_15_7) AppleWebKit/537.36 (KHTML, like Gecko) Chrome/121.0.0.0 Safari/537.36" version="24.0.1" etag="fY2v0BPFnRuLtkzP3vg1" type="github">
  <diagram name="페이지-1" id="O_M-aoedBsgipU2zy24T">
    <mxGraphModel>
      <root>
        <mxCell id="0" />
        <mxCell id="1" parent="0" />
      </root>
    </mxGraphModel>
  </diagram>
</mxfile>
